<svg width="20" height="19" viewBox="0 0 20 19" fill="none" xmlns="http://www.w3.org/2000/svg">
<path d="M11.7554 12.7757C12.0054 12.7757 12.2221 12.684 12.4054 12.5007C12.5888 12.3173 12.6804 12.1007 12.6804 11.8507C12.6804 11.6007 12.5888 11.388 12.4054 11.2127C12.2221 11.038 12.0054 10.9507 11.7554 10.9507C11.5054 10.9507 11.2888 11.038 11.1054 11.2127C10.9221 11.388 10.8304 11.6007 10.8304 11.8507C10.8304 12.1007 10.9221 12.3173 11.1054 12.5007C11.2888 12.684 11.5054 12.7757 11.7554 12.7757ZM11.1554 9.75068H12.3554C12.3721 9.30068 12.4304 8.96735 12.5304 8.75068C12.6304 8.53401 12.8721 8.24235 13.2554 7.87568C13.7221 7.42568 14.0388 7.05068 14.2054 6.75068C14.3721 6.45068 14.4554 6.09235 14.4554 5.67568C14.4554 4.97568 14.2054 4.39235 13.7054 3.92568C13.2054 3.45901 12.5554 3.22568 11.7554 3.22568C11.1388 3.22568 10.5931 3.39635 10.1184 3.73768C9.6431 4.07968 9.30543 4.54235 9.10543 5.12568L10.1804 5.57568C10.3471 5.17568 10.5638 4.87135 10.8304 4.66268C11.0971 4.45468 11.4054 4.35068 11.7554 4.35068C12.1888 4.35068 12.5471 4.47968 12.8304 4.73768C13.1138 4.99635 13.2554 5.33401 13.2554 5.75068C13.2554 6.00068 13.1848 6.23801 13.0434 6.46268C12.9014 6.68801 12.6554 6.95901 12.3054 7.27568C11.8221 7.69235 11.5098 8.04635 11.3684 8.33768C11.2264 8.62968 11.1554 9.10068 11.1554 9.75068ZM6.05543 15.5007C5.55543 15.5007 5.13043 15.3257 4.78043 14.9757C4.43043 14.6257 4.25543 14.2007 4.25543 13.7007V2.30068C4.25543 1.80068 4.43043 1.37568 4.78043 1.02568C5.13043 0.675679 5.55543 0.500679 6.05543 0.500679H17.4554C17.9554 0.500679 18.3804 0.675679 18.7304 1.02568C19.0804 1.37568 19.2554 1.80068 19.2554 2.30068V13.7007C19.2554 14.2007 19.0804 14.6257 18.7304 14.9757C18.3804 15.3257 17.9554 15.5007 17.4554 15.5007H6.05543ZM6.05543 14.0007H17.4554C17.5221 14.0007 17.5888 13.9673 17.6554 13.9007C17.7221 13.834 17.7554 13.7673 17.7554 13.7007V2.30068C17.7554 2.23401 17.7221 2.16735 17.6554 2.10068C17.5888 2.03401 17.5221 2.00068 17.4554 2.00068H6.05543C5.98877 2.00068 5.9221 2.03401 5.85543 2.10068C5.78877 2.16735 5.75543 2.23401 5.75543 2.30068V13.7007C5.75543 13.7673 5.78877 13.834 5.85543 13.9007C5.9221 13.9673 5.98877 14.0007 6.05543 14.0007ZM2.55543 19.0007C2.05543 19.0007 1.63043 18.8257 1.28043 18.4757C0.930432 18.1257 0.755432 17.7007 0.755432 17.2007V4.30068H2.25543V17.2007C2.25543 17.2673 2.28877 17.334 2.35543 17.4007C2.4221 17.4673 2.48877 17.5007 2.55543 17.5007H15.4554V19.0007H2.55543Z" fill="white"/>
</svg>
